<?xml version="1.0" encoding="UTF-8" standalone="no"?>
<!-- Created with Inkscape (http://www.inkscape.org/) -->

<svg
   xmlns:dc="http://purl.org/dc/elements/1.1/"
   xmlns:cc="http://creativecommons.org/ns#"
   xmlns:rdf="http://www.w3.org/1999/02/22-rdf-syntax-ns#"
   xmlns:svg="http://www.w3.org/2000/svg"
   xmlns="http://www.w3.org/2000/svg"
   xmlns:sodipodi="http://sodipodi.sourceforge.net/DTD/sodipodi-0.dtd"
   xmlns:inkscape="http://www.inkscape.org/namespaces/inkscape"
   viewBox="0 0 134.32684 34.924999"
   version="1.1"
   id="svg5302"
   class="agriculture-logo"
   inkscape:version="0.92.4 (5da689c313, 2019-01-14)"
   sodipodi:docname="agriculture-logo.svg">
  <defs
     id="defs5296">
    <clipPath
       clipPathUnits="userSpaceOnUse"
       id="clipPath674">
      <path
         d="M 0,3775.149 H 1680 V 0 H 0 Z"
         id="path672"
         inkscape:connector-curvature="0" />
    </clipPath>
  </defs>
  <sodipodi:namedview
     id="base"
     pagecolor="#ffffff"
     bordercolor="#666666"
     borderopacity="1.0"
     inkscape:pageopacity="0.0"
     inkscape:pageshadow="2"
     inkscape:zoom="0.35"
     inkscape:cx="1122.4174"
     inkscape:cy="-562.57143"
     inkscape:document-units="mm"
     inkscape:current-layer="layer1"
     showgrid="false"
     inkscape:pagecheckerboard="true"
     inkscape:window-width="1920"
     inkscape:window-height="986"
     inkscape:window-x="-11"
     inkscape:window-y="-11"
     inkscape:window-maximized="1" />
  <metadata
     id="metadata5299">
    <rdf:RDF>
      <cc:Work
         rdf:about="">
        <dc:format>image/svg+xml</dc:format>
        <dc:type
           rdf:resource="http://purl.org/dc/dcmitype/StillImage" />
        <dc:title></dc:title>
      </cc:Work>
    </rdf:RDF>
  </metadata>
  <g
     inkscape:label="Layer 1"
     inkscape:groupmode="layer"
     id="layer1"
     transform="translate(287.90152,34.938689)">
    <g
       transform="matrix(0.35277777,0,0,-0.35277777,-336.34563,1259.6355)"
       id="g670"
       clip-path="url(#clipPath674)">
      <g
         id="g676"
         transform="translate(357.6309,3620.0522)">
        <path
           d="M 0,0 V -5.399 H -16.526 V 16.609 H 0 V 11.21 H -10.538 V 8.275 h 8.513 v -5.34 h -8.513 V 0 Z m -28.5,11.21 h -4.022 V 6.016 h 4.022 c 1.35,0 2.23,1.496 2.23,2.582 0,1.086 -0.88,2.612 -2.23,2.612 m 4.52,-9.214 3.728,-7.395 h -6.722 l -2.73,5.986 h -2.818 v -5.986 h -5.988 v 22.008 h 10.01 c 4.638,0 8.307,-3.403 8.307,-8.011 0,-2.964 -1.673,-5.135 -3.787,-6.602 m -18.784,0.763 c 0,-5.311 -3.904,-8.657 -9.452,-8.657 -5.489,0 -9.393,3.346 -9.393,8.657 v 13.85 h 6.106 V 2.759 c 0,-1.82 1.144,-3.081 3.287,-3.081 2.173,0 3.318,1.261 3.318,3.081 v 13.85 h 6.134 z M -70.56,11.21 V -5.399 h -5.988 V 11.21 h -6.018 v 5.399 h 18.024 V 11.21 Z M -81.067,-5.399 h -15.998 v 22.008 h 5.988 V 0.029 h 10.01 z m -20.252,8.158 c 0,-5.311 -3.904,-8.657 -9.452,-8.657 -5.489,0 -9.394,3.346 -9.394,8.657 v 13.85 h 6.106 V 2.759 c 0,-1.82 1.145,-3.081 3.288,-3.081 2.172,0 3.317,1.261 3.317,3.081 v 13.85 h 6.135 z m -26.915,5.663 c -0.969,1.585 -2.73,2.7 -4.726,2.7 -3.053,0 -5.519,-2.494 -5.519,-5.517 0,-3.022 2.466,-5.516 5.519,-5.516 1.996,0 3.757,1.085 4.726,2.699 l 5.137,-3.081 c -1.996,-3.345 -5.665,-5.605 -9.863,-5.605 -6.575,0 -11.8,4.96 -11.8,11.503 0,6.544 5.225,11.503 11.8,11.503 4.198,0 7.867,-2.259 9.863,-5.605 z m -25.449,8.187 h 5.988 V -5.399 h -5.988 z M -165.07,11.21 h -4.021 V 6.016 h 4.021 c 1.351,0 2.231,1.496 2.231,2.582 0,1.086 -0.88,2.612 -2.231,2.612 m 4.521,-9.214 3.728,-7.395 h -6.722 l -2.73,5.986 h -2.818 v -5.986 h -5.989 v 22.008 h 10.01 c 4.638,0 8.308,-3.403 8.308,-8.011 0,-2.964 -1.674,-5.135 -3.787,-6.602 m -26.826,-7.894 c -6.547,0 -11.801,4.96 -11.801,11.503 0,6.544 5.254,11.503 11.801,11.503 3.169,0 6.076,-1.32 8.16,-3.404 l -4.11,-4.079 c -0.998,0.998 -2.231,1.79 -4.05,1.79 -3.318,0 -5.49,-2.787 -5.49,-5.81 0,-3.022 2.172,-5.78 5.49,-5.78 1.496,0 2.348,0.674 3.257,1.349 v 1.79 h -3.257 V 8.07 h 8.747 v -9.948 c -2.114,-2.465 -5.254,-4.02 -8.747,-4.02 m -21.867,12.501 h -0.118 l -1.761,-4.285 h 3.64 z m 10.949,-12.002 h -6.458 l -0.998,2.495 h -7.104 l -0.998,-2.495 h -6.458 l 9.599,22.008 h 2.847 z m 326.935,0.04 h 5.986 V 16.64 h -5.986 z M 117.199,6.022 h -3.814 v 5.221 h 3.814 c 1.35,0 2.23,-1.526 2.23,-2.611 0,-1.085 -0.88,-2.61 -2.23,-2.61 m 8.509,2.61 c 0,4.605 -3.667,8.008 -8.303,8.008 H 107.399 V -5.359 h 5.986 v 5.984 h 2.816 l 2.729,-5.984 h 6.719 l -3.726,7.392 c 2.113,1.466 3.785,3.637 3.785,6.599 M 92.406,-0.167 c -3.198,0 -5.809,2.61 -5.809,5.808 0,3.197 2.611,5.807 5.809,5.807 3.198,0 5.81,-2.61 5.81,-5.807 0,-3.198 -2.612,-5.808 -5.81,-5.808 m 0,17.306 C 85.863,17.139 80.2,12.181 80.2,5.641 c 0,-6.541 5.663,-11.498 12.206,-11.498 6.544,0 12.207,4.957 12.207,11.498 0,6.54 -5.663,11.498 -12.207,11.498 M 35.162,-5.359 H 29.177 V 16.64 h 5.985 z M 81.049,49.607 H -12.607 L 2.991,16.632 h 6.64 l 5.577,-12.003 5.578,12.003 h 6.693 L 17.439,-5.377 h -4.038 l 20.82,-44.016 21.187,44.791 c -1.712,-0.821 -3.638,-1.255 -5.663,-1.255 -6.221,0 -11.796,4.957 -11.796,11.498 0,6.54 5.575,11.498 11.796,11.498 4.195,0 7.981,-1.848 10.269,-5.192 L 55.026,8.896 c -1.115,1.525 -2.699,2.552 -4.988,2.552 -3.052,0 -5.692,-2.786 -5.692,-5.807 0,-3.021 2.64,-5.808 5.692,-5.808 2.289,0 3.873,1.026 4.988,2.552 l 2.859,-1.749 5.017,10.607 h 4.3 V -5.359 h 5.986 v 16.602 h 6.015 V 16.64 H 65.455 Z m 66.054,-47.606 1.761,4.755 h 0.293 l 1.762,-4.755 z m 0.646,14.645 -10.188,-22.011 h 6.517 l 1.115,2.524 h 7.635 l 1.115,-2.524 h 6.517 l -10.187,22.011 z"
           style="fill:#00573f;fill-opacity:1;fill-rule:nonzero;stroke:none"
           id="path678"
           inkscape:connector-curvature="0" />
      </g>
    </g>
  </g>
</svg>
