<?xml version="1.0" standalone="no"?>
<!DOCTYPE svg PUBLIC "-//W3C//DTD SVG 20010904//EN"
 "http://www.w3.org/TR/2001/REC-SVG-20010904/DTD/svg10.dtd">
<svg version="1.0" xmlns="http://www.w3.org/2000/svg"
 width="384.000000pt" height="107.000000pt" viewBox="0 0 384.000000 107.000000"
 preserveAspectRatio="xMidYMid meet">

<g transform="translate(0.000000,107.000000) scale(0.100000,-0.100000)"
fill="#00573F" stroke="none">
<path d="M2102 1001 c2 -4 35 -76 73 -159 l70 -151 36 -1 c35 0 38 -3 59 -55
12 -30 26 -55 30 -55 5 0 18 25 31 55 21 51 25 55 57 55 40 0 40 0 -24 -137
-29 -62 -48 -93 -59 -93 -9 0 -15 -4 -13 -9 14 -41 194 -411 199 -411 3 0 18
26 32 58 26 57 166 351 173 364 2 3 -13 4 -34 1 -109 -15 -176 108 -103 189
26 30 35 33 84 33 45 0 60 -5 82 -25 l26 -24 -24 -13 c-19 -9 -31 -10 -54 -1
-37 14 -60 6 -75 -26 -9 -20 -8 -30 6 -52 15 -22 23 -25 49 -19 18 3 42 6 53
7 16 0 28 14 45 49 17 38 28 49 46 49 22 0 23 -3 23 -80 l0 -80 30 0 30 0 0
80 0 80 30 0 c25 0 30 4 30 25 0 24 -2 25 -70 25 -38 0 -70 2 -70 4 0 1 34 74
75 160 41 86 75 159 75 161 0 3 -207 5 -461 5 -255 0 -459 -4 -457 -9z m468
-426 l0 -115 -30 0 -30 0 0 115 0 115 30 0 30 0 0 -115z"/>
<path d="M305 680 c-73 -30 -94 -124 -41 -179 37 -38 81 -48 129 -27 36 15 37
16 37 70 l0 56 -40 0 c-36 0 -40 -2 -40 -25 0 -16 6 -25 16 -25 24 0 11 -25
-15 -28 -26 -4 -61 23 -61 47 0 9 7 27 16 40 14 19 23 22 55 18 29 -4 42 0 55
14 16 18 15 19 -19 34 -40 17 -62 18 -92 5z"/>
<path d="M844 676 c-43 -19 -64 -53 -64 -102 0 -51 27 -88 76 -104 41 -14 71
-8 108 21 l27 21 -21 15 c-18 13 -26 13 -46 2 -17 -9 -32 -10 -52 -3 -23 8
-27 15 -27 49 0 34 4 41 27 49 20 7 35 6 52 -3 20 -11 28 -11 45 1 20 14 20
16 4 30 -46 40 -79 46 -129 24z"/>
<path d="M3095 676 c-61 -27 -90 -94 -63 -146 17 -32 74 -70 105 -70 62 0 123
57 123 115 0 38 -29 82 -66 100 -39 18 -60 18 -99 1z m89 -62 c35 -34 6 -94
-45 -94 -28 0 -59 31 -59 59 0 43 72 68 104 35z"/>
<path d="M72 582 c-23 -54 -42 -101 -42 -105 0 -4 14 -7 30 -7 17 0 30 5 30
10 0 6 18 10 40 10 22 0 40 -4 40 -10 0 -5 14 -10 31 -10 36 0 37 -10 -18 123
-24 56 -43 87 -53 87 -10 0 -30 -34 -58 -98z m72 -18 c9 -23 8 -24 -14 -24
-11 0 -20 2 -20 4 0 12 13 36 20 36 4 0 11 -7 14 -16z"/>
<path d="M470 575 l0 -105 30 0 c27 0 30 3 30 30 0 20 5 30 16 30 8 0 20 -13
25 -30 9 -25 16 -30 45 -30 l34 0 -17 35 c-15 32 -15 36 0 53 24 27 21 74 -6
100 -19 18 -35 22 -90 22 l-67 0 0 -105z m120 30 c0 -21 -5 -25 -30 -25 -25 0
-30 4 -30 25 0 21 5 25 30 25 25 0 30 -4 30 -25z"/>
<path d="M690 575 l0 -105 25 0 25 0 0 105 0 105 -25 0 -25 0 0 -105z"/>
<path d="M1020 605 c0 -41 5 -85 11 -99 14 -30 67 -50 108 -41 51 11 64 37 69
130 l5 85 -32 0 -31 0 0 -75 c0 -60 -3 -76 -17 -84 -11 -6 -24 -6 -35 0 -15 8
-18 23 -18 84 l0 75 -30 0 -30 0 0 -75z"/>
<path d="M1250 575 l0 -105 80 0 c79 0 80 0 80 25 0 23 -3 25 -50 25 l-50 0 0
80 0 80 -30 0 -30 0 0 -105z"/>
<path d="M1400 655 c0 -21 5 -25 30 -25 l30 0 0 -80 c0 -79 0 -80 25 -80 25 0
25 1 25 80 l0 80 30 0 c25 0 30 4 30 25 0 25 -1 25 -85 25 -84 0 -85 0 -85
-25z"/>
<path d="M1610 592 c0 -78 3 -91 21 -108 31 -28 100 -26 133 5 24 23 26 31 26
108 l0 83 -30 0 -30 0 0 -75 c0 -63 -3 -76 -19 -85 -34 -18 -51 12 -51 91 0
67 -1 69 -25 69 -25 0 -25 -1 -25 -88z"/>
<path d="M1840 575 c0 -105 0 -105 24 -105 19 0 25 6 28 27 4 38 24 39 43 4
12 -24 22 -31 45 -31 l30 0 -17 36 c-13 25 -14 37 -6 42 23 14 32 56 18 88
-16 38 -30 44 -106 44 l-59 0 0 -105z m115 30 c0 -15 -8 -21 -32 -23 -30 -3
-33 -1 -33 23 0 24 3 26 33 23 24 -2 32 -8 32 -23z"/>
<path d="M2050 575 l0 -105 85 0 c84 0 85 0 85 25 0 24 -3 25 -55 25 -42 0
-55 3 -55 15 0 11 12 15 45 15 41 0 45 2 45 25 0 23 -4 25 -45 25 -33 0 -45 4
-45 15 0 12 13 15 55 15 52 0 55 1 55 25 0 25 -1 25 -85 25 l-85 0 0 -105z"/>
<path d="M3290 575 l0 -105 30 0 c27 0 30 3 30 30 0 19 5 30 14 30 7 0 19 -13
26 -30 10 -24 19 -30 41 -30 32 0 35 7 18 44 -9 19 -8 29 5 47 23 33 20 72 -7
97 -19 18 -35 22 -90 22 l-67 0 0 -105z m115 30 c0 -14 -8 -21 -27 -23 -24 -3
-28 0 -28 23 0 23 4 26 28 23 19 -2 27 -9 27 -23z"/>
<path d="M3500 575 l0 -105 30 0 30 0 0 105 0 105 -30 0 -30 0 0 -105z"/>
<path d="M3646 580 c-25 -55 -46 -102 -46 -105 0 -3 14 -5 30 -5 17 0 30 5 30
10 0 6 20 10 45 10 25 0 45 -4 45 -10 0 -5 14 -10 31 -10 36 0 36 1 -22 125
-22 47 -46 85 -53 85 -7 0 -34 -45 -60 -100z m74 -27 c0 -7 -7 -13 -15 -13
-16 0 -19 9 -9 35 5 13 8 14 15 3 5 -7 9 -19 9 -25z"/>
</g>
</svg>
